<?xml version="1.0" encoding="UTF-8" standalone="no"?>
<!DOCTYPE svg PUBLIC "-//W3C//DTD SVG 1.1//EN" "http://www.w3.org/Graphics/SVG/1.1/DTD/svg11.dtd">
<svg width="50" height="50" viewBox="0 0 800 800" fill="none" xmlns="http://www.w3.org/2000/svg">
<g clipPath="url(#clip0_3428_15509)">
<rect width="800" height="799.998" rx="100" fill="#09090B"/>
<g opacity="0.9">
<path fillRule="evenodd" clipRule="evenodd" d="M291.089 437.479C224.642 377.435 225.357 269.555 286.223 204.724C354.581 131.908 475.491 118.826 570.887 166.373C577.298 169.578 582.351 162.589 576.117 157.583C490.891 77.4622 337.752 81.2176 246.073 167.153C155.772 251.791 154.439 402.537 244.683 484.228C259.525 497.691 283.6 503.496 296.98 487.252C310.981 471.282 304.801 449.862 291.089 437.479Z" fill="white"/>
<path fillRule="evenodd" clipRule="evenodd" d="M362.518 291.084C422.562 224.639 530.442 225.353 595.273 286.218C668.09 354.576 681.171 475.486 633.623 570.882C630.418 577.293 637.409 582.346 642.415 576.112C722.534 490.886 718.778 337.747 632.845 246.07C548.207 155.768 397.461 154.435 315.769 244.679C302.306 259.52 296.498 283.596 312.743 296.975C328.713 310.976 350.135 304.796 362.518 291.084Z" fill="white"/>
<path fillRule="evenodd" clipRule="evenodd" d="M508.902 362.52C575.349 422.565 574.636 530.444 513.77 595.275C445.413 668.091 324.502 681.173 229.106 633.626C222.695 630.422 217.642 637.411 223.876 642.416C309.102 722.535 462.24 718.78 553.919 632.846C644.219 548.209 645.554 397.463 555.308 315.771C540.469 302.309 516.391 296.503 503.014 312.746C489.011 328.718 495.193 350.137 508.902 362.52Z" fill="white"/>
<path fillRule="evenodd" clipRule="evenodd" d="M437.483 508.898C377.439 575.344 269.559 574.631 204.728 513.765C131.912 445.408 118.83 324.498 166.377 229.102C169.581 222.691 162.592 217.638 157.587 223.872C77.4653 309.098 81.2208 462.235 167.156 553.914C251.794 644.214 402.541 645.549 484.233 555.305C497.695 540.464 503.501 516.386 487.256 503.009C471.286 489.008 449.867 495.188 437.483 508.898Z" fill="white"/>
</g>
</g>
<defs>
<clipPath id="clip0_3428_15509">
<rect width="800" height="799.998" rx="100" fill="white"/>
</clipPath>
</defs>
</svg>
